<svg width="136" height="65" viewBox="0 0 136 65" fill="none" xmlns="http://www.w3.org/2000/svg">
<g clip-path="url(#clip0_12_3)" filter="url(#filter0_d_12_3)">
<path fill-rule="evenodd" clip-rule="evenodd" d="M126.88 7.69565H9.12V52.3043H126.88V7.69565ZM4 3V57H132V3H4Z" fill="url(#paint0_linear_12_3)"/>
<path d="M115.546 45H112.174V29L122.291 15H97L107.116 29V45H103.744C100.372 45 100.372 47 100.372 47H118.919C118.919 47 118.919 45 115.546 45ZM118.75 17L115.715 21H103.576L100.709 17H118.75ZM108.802 45V29H110.488V45H108.802Z" fill="url(#paint1_linear_12_3)"/>
<path d="M23.852 35.9227C24.4938 35.9227 24.9836 35.5258 25.3213 34.732C25.6676 33.9382 25.8407 32.6293 25.8407 30.8053V29.526C25.8407 28.1918 25.6802 27.1616 25.3593 26.4353C25.0384 25.7091 24.5824 25.346 23.9913 25.346H23.0413V35.9227H23.852ZM24.2447 38.0887C23.9407 38.0887 23.4678 38.0718 22.826 38.038C22.1927 38.0127 21.5382 38 20.8627 38H18.8487V23.1547H20.8627C21.4284 23.1462 22.0449 23.1251 22.712 23.0913C23.3791 23.0576 23.9027 23.0407 24.2827 23.0407C26.436 23.0407 27.9771 23.6444 28.906 24.852C29.8433 26.0596 30.312 27.8202 30.312 30.134C30.312 30.9193 30.2571 31.6667 30.1473 32.376C30.046 33.0853 29.8518 33.7989 29.5647 34.5167C29.2776 35.226 28.9144 35.8382 28.4753 36.3533C28.0362 36.8684 27.4536 37.2864 26.7273 37.6073C26.0011 37.9282 25.1736 38.0887 24.2447 38.0887ZM35.7336 38H31.6423V29.8047L30.8823 29.336V27.9047L33.6056 27.2333H34.6316L34.999 30.248C35.3452 28.1791 36.4556 27.1447 38.3303 27.1447C38.5414 27.1447 38.761 27.1827 38.989 27.2587L38.5583 31.768C38.381 31.6076 37.9925 31.5273 37.393 31.5273C36.5316 31.5273 35.9785 31.7553 35.7336 32.2113V38ZM39.9919 38V29.8047L39.2319 29.336V27.9807L41.9552 27.2333H44.0706V38H39.9919ZM41.8286 26.068L39.7512 23.978V23.5347L41.8286 21.4573H42.3099L44.4759 23.5347V23.978L42.3099 26.068H41.8286ZM49.9094 38H45.8181V29.8047L45.0581 29.336V27.9807L47.7814 27.2333H49.9347V28.8673L50.0867 28.6773C50.1881 28.5422 50.3359 28.3818 50.5301 28.196C50.7327 28.0102 50.9565 27.8287 51.2014 27.6513C51.4463 27.4656 51.7376 27.3093 52.0754 27.1827C52.4216 27.0476 52.7594 26.98 53.0887 26.98C54.2456 26.98 55.0605 27.2967 55.5334 27.93C56.0147 28.5633 56.2554 29.6231 56.2554 31.1093C56.2554 31.16 56.2554 31.236 56.2554 31.3373C56.247 31.4387 56.2427 31.5189 56.2427 31.578V38H52.0627V31.2107C52.0881 30.4169 51.7503 30.02 51.0494 30.02C50.9987 30.02 50.9481 30.0242 50.8974 30.0327C50.8552 30.0411 50.813 30.0496 50.7707 30.058C50.737 30.0664 50.6947 30.0833 50.6441 30.1087C50.6019 30.1256 50.5639 30.1424 50.5301 30.1593C50.4963 30.1678 50.4583 30.1889 50.4161 30.2227C50.3739 30.248 50.3401 30.2691 50.3147 30.286C50.2894 30.3029 50.2514 30.3324 50.2007 30.3747C50.1585 30.4084 50.1247 30.4338 50.0994 30.4507C50.0825 30.4676 50.0487 30.4971 49.9981 30.5393C49.9559 30.5731 49.9263 30.5984 49.9094 30.6153V38ZM64.0102 38L62.0468 32.8193L64.1242 27.2333H68.8742L65.5555 32.2113L68.9502 38H64.0102ZM57.6642 38V23.674L56.9042 23.218V22.04L60.9702 21.4067H61.7935V38H57.6642ZM69.4196 38V29.8047L68.6596 29.336V27.9807L71.383 27.2333H73.4983V38H69.4196ZM71.2563 26.068L69.179 23.978V23.5347L71.2563 21.4573H71.7376L73.9036 23.5347V23.978L71.7376 26.068H71.2563ZM79.6538 38H75.5371V29.4627H74.3085V27.778L75.5878 27.2333V26.1313C75.5878 25.2784 75.706 24.5396 75.9425 23.9147C76.1789 23.2898 76.5083 22.8042 76.9305 22.458C77.3611 22.1118 77.834 21.8627 78.3491 21.7107C78.8727 21.5502 79.4554 21.47 80.0971 21.47C80.6714 21.47 81.2118 21.546 81.7185 21.698C82.2251 21.85 82.5418 21.9893 82.6685 22.116L82.1871 24.0413C81.7818 23.8387 81.3638 23.7373 80.9331 23.7373C80.8234 23.7373 80.722 23.7458 80.6291 23.7627C79.9789 23.864 79.6538 24.4171 79.6538 25.422V27.2333H81.2878V29.4627H79.6538V38ZM87.5641 42.3573C86.6944 42.3573 85.8753 42.2307 85.1068 41.9773C84.3384 41.724 83.7768 41.382 83.4221 40.9513L84.0808 39.5833C84.5706 39.862 85.3475 40.0013 86.4115 40.0013C86.7493 40.0013 87.0406 39.9633 87.2855 39.8873C87.5304 39.8113 87.7499 39.6762 87.9441 39.482C88.1384 39.2962 88.2861 39.0302 88.3875 38.684C88.4888 38.3378 88.5437 37.9113 88.5521 37.4047V36.3153L88.4255 36.518C88.341 36.6531 88.2101 36.8178 88.0328 37.012C87.8639 37.1978 87.6697 37.3878 87.4501 37.582C87.2306 37.7678 86.9604 37.9282 86.6395 38.0633C86.327 38.1984 86.0061 38.266 85.6768 38.266C84.4186 38.266 83.5319 37.9156 83.0168 37.2147C82.5017 36.5053 82.2441 35.3147 82.2441 33.6427V29.146L81.7881 28.69V27.2333H86.3988V34.4407C86.3988 34.8291 86.4579 35.1162 86.5761 35.302C86.7028 35.4793 86.9519 35.568 87.3235 35.568C87.4333 35.568 87.543 35.5511 87.6528 35.5173C87.7626 35.4751 87.8681 35.4202 87.9695 35.3527C88.0793 35.2851 88.1933 35.2007 88.3115 35.0993V29.146L87.6148 28.69V27.2333H92.4408V36.518C92.4408 38.3842 92.0439 39.824 91.2501 40.8373C90.4564 41.8507 89.2277 42.3573 87.5641 42.3573Z" fill="url(#paint2_linear_12_3)"/>
</g>
<defs>
<filter id="filter0_d_12_3" x="0" y="0" width="136" height="65" filterUnits="userSpaceOnUse" color-interpolation-filters="sRGB">
<feFlood flood-opacity="0" result="BackgroundImageFix"/>
<feColorMatrix in="SourceAlpha" type="matrix" values="0 0 0 0 0 0 0 0 0 0 0 0 0 0 0 0 0 0 127 0" result="hardAlpha"/>
<feOffset dy="4"/>
<feGaussianBlur stdDeviation="2"/>
<feComposite in2="hardAlpha" operator="out"/>
<feColorMatrix type="matrix" values="0 0 0 0 0 0 0 0 0 0 0 0 0 0 0 0 0 0 0.25 0"/>
<feBlend mode="normal" in2="BackgroundImageFix" result="effect1_dropShadow_12_3"/>
<feBlend mode="normal" in="SourceGraphic" in2="effect1_dropShadow_12_3" result="shape"/>
</filter>
<linearGradient id="paint0_linear_12_3" x1="68" y1="3" x2="68" y2="57" gradientUnits="userSpaceOnUse">
<stop stop-color="#117A11"/>
<stop offset="1" stop-color="#0D7D0D"/>
</linearGradient>
<linearGradient id="paint1_linear_12_3" x1="109.645" y1="15" x2="109.645" y2="47" gradientUnits="userSpaceOnUse">
<stop stop-color="#117A11"/>
<stop offset="1" stop-color="#0D7D0D"/>
</linearGradient>
<linearGradient id="paint2_linear_12_3" x1="55.871" y1="15" x2="55.871" y2="42" gradientUnits="userSpaceOnUse">
<stop stop-color="#117A11"/>
<stop offset="1" stop-color="#0D7D0D"/>
</linearGradient>
<clipPath id="clip0_12_3">
<rect width="128" height="57" fill="white" transform="translate(4)"/>
</clipPath>
</defs>
</svg>
